<?xml version="1.0" standalone="no"?>
<!DOCTYPE svg PUBLIC "-//W3C//DTD SVG 20010904//EN"
 "http://www.w3.org/TR/2001/REC-SVG-20010904/DTD/svg10.dtd">
<svg version="1.0" xmlns="http://www.w3.org/2000/svg"
 width="260.000000pt" height="260.000000pt" viewBox="0 0 260.000000 260.000000"
 preserveAspectRatio="xMidYMid meet">
<metadata>
Created by potrace 1.11, written by Peter Selinger 2001-2013
</metadata>
<g transform="translate(0.000000,260.000000) scale(0.100000,-0.100000)"
fill="#000000" stroke="none">
<path d="M246 2508 c-64 -9 -119 -47 -153 -105 l-28 -48 -1 -430 c0 -236 1
-433 3 -437 3 -5 144 71 162 88 2 1 3 160 3 351 -1 191 1 360 4 374 3 14 15
30 27 36 13 5 428 9 1049 8 1007 0 1028 -1 1042 -20 11 -16 14 -77 12 -345
l-1 -325 79 -62 c44 -35 82 -63 85 -63 4 0 6 186 6 413 l-1 413 -26 45 c-27
45 -81 90 -128 105 -31 10 -2066 12 -2134 2z"/>
<path d="M1093 1875 c-16 -7 -191 -108 -389 -225 -197 -117 -431 -255 -519
-307 -88 -52 -163 -98 -167 -102 -9 -8 76 -75 116 -90 47 -18 85 -4 253 97 90
53 171 102 181 107 103 57 722 430 722 435 0 3 -22 23 -50 44 -60 45 -106 58
-147 41z"/>
<path d="M1713 1809 l-83 -50 6 -37 c3 -20 7 -48 9 -62 2 -14 9 -56 15 -95 18
-117 20 -129 25 -155 3 -14 7 -41 9 -60 3 -19 7 -48 10 -65 5 -31 44 -281 51
-325 20 -134 29 -180 33 -180 17 0 164 95 173 112 11 21 10 35 -20 203 -11 61
-32 174 -46 251 -14 78 -32 163 -40 190 -20 66 -19 73 8 40 12 -16 135 -122
274 -237 l251 -208 102 61 c56 33 98 63 94 67 -5 4 -49 39 -99 77 -49 38 -97
74 -105 81 -34 26 -301 234 -385 298 -49 38 -112 86 -138 107 -27 21 -52 38
-55 37 -4 0 -44 -23 -89 -50z"/>
<path d="M1223 1519 c-83 -50 -97 -68 -89 -111 2 -13 16 -91 31 -173 49 -277
74 -401 89 -444 8 -23 13 -41 11 -39 -45 44 -181 161 -335 288 -145 119 -202
160 -222 160 -22 0 -205 -98 -196 -105 2 -1 86 -66 187 -145 415 -321 577
-446 589 -454 7 -4 42 10 87 38 42 25 81 46 87 46 10 0 8 30 -7 125 -3 17 -9
58 -15 93 -5 34 -15 90 -20 125 -12 75 -18 110 -25 162 -3 22 -12 78 -20 125
-8 47 -17 105 -20 130 -3 25 -12 83 -20 130 -8 47 -15 88 -15 93 0 13 -14 7
-97 -44z"/>
<path d="M2453 964 c-80 -44 -83 -46 -84 -82 0 -20 -1 -170 -1 -332 0 -238 -3
-299 -14 -317 l-14 -23 -1040 0 -1040 0 -14 23 c-12 18 -15 82 -15 367 0 190
0 350 0 357 -1 7 -19 11 -49 10 -26 0 -63 2 -82 6 l-36 7 1 -387 c1 -429 0
-419 68 -491 60 -63 25 -61 1172 -61 599 1 1055 5 1076 10 54 13 126 82 141
132 8 29 12 161 12 435 1 215 1 392 1 392 0 0 -37 -21 -82 -46z"/>
</g>
</svg>
